<svg width="64" height="64" viewBox="0 0 64 64" fill="none" xmlns="http://www.w3.org/2000/svg">
<rect width="64" height="64" fill="#1E1E1E"/>
<rect width="64" height="64" fill="white"/>
<path d="M11.752 25.768C10.2373 25.768 8.712 25.5973 7.176 25.256C5.66133 24.8933 4.41333 24.4027 3.432 23.784C3.176 23.016 2.984 22.248 2.856 21.48C2.728 20.712 2.568 19.6133 2.376 18.184V18.088C2.41867 17.832 2.55733 17.64 2.792 17.512C3.60267 18.0027 4.38133 18.376 5.128 18.632C5.87467 18.8667 6.696 18.984 7.592 18.984H8.36L8.872 19.016C9.36267 19.016 9.864 18.9413 10.376 18.792C10.6533 18.6853 10.8453 18.4827 10.952 18.184L9.256 17.352C7.95467 16.7333 6.78133 16.072 5.736 15.368C4.648 14.5787 3.86933 13.576 3.4 12.36C3.16533 11.6987 3.048 10.9733 3.048 10.184C3.048 8.264 3.63467 6.71733 4.808 5.544C5.832 4.49867 7.21867 3.752 8.968 3.304C10.4827 2.94133 12.1467 2.76 13.96 2.76C15.0267 2.76 16.4987 2.87733 18.376 3.112C18.568 3.15467 18.8347 3.19733 19.176 3.24L20.136 3.432C20.8613 3.56 21.3947 3.624 21.736 3.624C21.7573 3.624 21.7893 3.656 21.832 3.72C21.896 3.784 21.9493 3.83733 21.992 3.88C22.0773 4.02933 22.1627 4.104 22.248 4.104H22.28H22.312L22.376 4.776C22.376 5.096 22.408 5.43733 22.472 5.8C22.536 6.33333 22.568 6.90933 22.568 7.528C22.568 8.06133 22.536 8.44533 22.472 8.68C22.3653 9.10667 22.1733 9.416 21.896 9.608L18.92 9.224H18.6H18.152C17.4267 9.224 16.5947 9.29867 15.656 9.448L14.6 9.672C14.344 9.71467 14.216 9.75733 14.216 9.8C14.216 10.312 14.5467 10.792 15.208 11.24C15.528 11.4107 15.848 11.56 16.168 11.688C16.488 11.7947 16.6907 11.8693 16.776 11.912C18.3547 12.36 19.72 13.1387 20.872 14.248C21.4053 14.76 21.8213 15.304 22.12 15.88C22.4187 16.456 22.568 17.0107 22.568 17.544C22.568 17.864 22.5253 18.2053 22.44 18.568C22.2907 20.168 21.6827 21.5547 20.616 22.728C19.5707 23.7733 18.2587 24.5413 16.68 25.032C15.3147 25.5227 13.672 25.768 11.752 25.768Z" fill="black"/>
<path d="M43 18.4805C42.6406 18.6836 42.2773 18.875 41.9102 19.0547C41.543 19.2344 41.1719 19.4023 40.7969 19.5586C41.2031 20.3789 41.6328 21.168 42.0859 21.9258C42.5391 22.6758 43.0195 23.4141 43.5273 24.1406C42.2227 24.1406 40.9805 24.2695 39.8008 24.5273C38.6289 24.793 37.4727 25.2109 36.332 25.7812C36.3945 25.5781 36.4375 25.3555 36.4609 25.1133C36.4844 24.8789 36.4961 24.6289 36.4961 24.3633C36.4961 23.8945 36.4492 23.3789 36.3555 22.8164C36.2695 22.2539 36.1406 21.6562 35.9688 21.0234C35.5547 21.0859 35.1406 21.1328 34.7266 21.1641C34.3203 21.1953 33.918 21.2109 33.5195 21.2109C32.832 21.2109 32.1641 21.1562 31.5156 21.0469C30.8672 20.9375 30.2383 20.7695 29.6289 20.543C29.4883 21.2695 29.3555 22.0039 29.2305 22.7461C29.1055 23.4883 28.9844 24.25 28.8672 25.0312C28.4688 24.8125 28.0273 24.6172 27.543 24.4453C27.1211 24.2969 26.6211 24.1602 26.043 24.0352C25.4648 23.918 24.8203 23.8594 24.1094 23.8594C23.5469 23.8594 22.9531 23.9102 22.3281 24.0117C21.7031 24.1211 21.0586 24.3008 20.3945 24.5508C21.0039 23.8867 21.5703 23.2188 22.0938 22.5469C22.625 21.8672 23.1055 21.2148 23.5352 20.5898C23.9648 19.957 24.3477 19.3672 24.6836 18.8203C25.0195 18.2734 25.3008 17.8008 25.5273 17.4023C25.3008 17.0898 25.0859 16.7539 24.8828 16.3945C24.6797 16.0352 24.4961 15.6484 24.332 15.2344C24.6445 15.4062 24.957 15.5664 25.2695 15.7148C25.5898 15.8555 25.9062 15.9922 26.2188 16.125V16.1016C26.6406 15.2344 27.082 14.3867 27.543 13.5586C28.0039 12.7305 28.5 11.9297 29.0312 11.1562C28.9219 10.8906 28.7852 10.5898 28.6211 10.2539C28.4648 9.91797 28.293 9.56641 28.1055 9.19922C27.918 8.83203 27.7188 8.46484 27.5078 8.09766C27.3047 7.73047 27.1016 7.38281 26.8984 7.05469C27.6719 7.27344 28.4609 7.45312 29.2656 7.59375C30.0781 7.72656 30.9141 7.8125 31.7734 7.85156C32.2266 7.41406 32.6953 7.01172 33.1797 6.64453C33.6641 6.27734 34.1758 5.94922 34.7148 5.66016C34.5273 6.01172 34.3438 6.36719 34.1641 6.72656C33.9844 7.08594 33.8086 7.45312 33.6367 7.82812C34.0977 7.80469 34.5586 7.76172 35.0195 7.69922C35.4805 7.63672 35.9414 7.55859 36.4023 7.46484C36.7383 8.80078 37.1055 10.1094 37.5039 11.3906C37.9023 12.6719 38.3438 13.9297 38.8281 15.1641C39.2266 14.9375 39.6133 14.6953 39.9883 14.4375C40.3633 14.1719 40.7422 13.8945 41.125 13.6055C41.3672 14.5352 41.6406 15.4023 41.9453 16.207C42.25 17.0117 42.6016 17.7695 43 18.4805ZM34.5273 16.8984C33.832 15.2266 33 13.5039 32.0312 11.7305C31.7344 12.582 31.4492 13.457 31.1758 14.3555C30.9102 15.2461 30.6523 16.1797 30.4023 17.1562C30.6055 17.1719 30.8086 17.1836 31.0117 17.1914C31.2148 17.1992 31.418 17.2031 31.6211 17.2031C32.1133 17.2031 32.5977 17.1797 33.0742 17.1328C33.5586 17.0859 34.043 17.0078 34.5273 16.8984Z" fill="black"/>
<path d="M3 57V32H18V37H23V42H18V52H23V57H18V52H13V47H8V57H3ZM8 42H17.8V37H8V42Z" fill="black"/>
<path d="M27.3994 52.2506C25.9129 51.9335 24.8596 51.349 24.2397 50.4969C23.715 49.8124 23.4637 48.8427 23.486 47.5877C23.4997 46.7563 23.6768 45.5425 24.0172 43.9464C24.2642 42.7885 24.5971 41.5343 25.016 40.184C25.0627 39.9649 25.1451 39.6553 25.2632 39.2551C25.3489 38.9298 25.463 38.4716 25.6055 37.8803C25.7513 37.2733 25.8726 36.743 25.9694 36.2892C26.0195 36.0545 26.0388 35.8868 26.0276 35.7863C26.043 35.5605 26.0641 35.385 26.0908 35.2599C26.1442 35.0095 26.4369 34.941 26.9689 35.0545L28.3772 35.3549C29.3854 35.5372 30.3411 35.7737 31.2443 36.0645C31.8725 36.264 32.3504 36.4395 32.678 36.5912C33.0771 36.7908 33.3254 37.0074 33.4228 37.2408C33.498 37.5023 33.4738 37.9225 33.3503 38.5014C33.2001 39.2056 33.0538 39.8533 32.9113 40.4446C32.7722 41.0202 32.6464 41.5333 32.534 41.9837C32.4949 42.0899 32.4504 42.2604 32.4003 42.4951C32.3336 42.8081 32.2045 43.3368 32.013 44.0812C31.688 45.4516 31.427 46.5984 31.2301 47.5216C31.1066 48.1006 31.04 48.5281 31.0302 48.8041C31.0238 49.0645 31.1222 49.2164 31.3257 49.2598C31.7482 49.3499 32.2315 49.3466 32.7756 49.25C33.1219 49.1603 33.366 49.0896 33.5079 49.0381L35.5204 39.6023C35.5502 39.2324 35.6018 38.8753 35.6753 38.531C35.664 38.4305 35.6767 38.2941 35.7134 38.122L35.7585 37.9108C35.8185 37.6291 35.915 37.4452 36.0479 37.359C36.1775 37.2885 36.4457 37.2966 36.8525 37.3834C37.3063 37.4802 37.8981 37.5818 38.628 37.6884C38.8783 37.7418 39.2259 37.7996 39.6708 37.8617C39.9837 37.9285 40.2156 37.9534 40.3665 37.9365C40.4604 37.9565 40.5666 37.9955 40.6851 38.0535C40.8728 38.0936 41.0276 38.1348 41.1495 38.1771L41.8487 38.3508C42.1896 38.4399 42.6065 38.5942 43.0996 38.8139L43.7167 39.1419C43.8476 39.2188 43.9219 39.292 43.9399 39.3612C43.9735 39.4338 43.9803 39.5171 43.9602 39.611C43.4663 41.9269 42.9237 44.2406 42.3326 46.5521C41.5845 49.5991 41.0437 51.905 40.7099 53.4698C40.5764 54.0958 40.2124 54.3453 39.6177 54.2185L38.4207 53.9632C38.101 53.9277 37.5232 53.8372 36.6872 53.6916C36.2111 53.6228 35.84 53.56 35.574 53.5033L34.4842 53.3199C34.0617 53.2298 33.756 53.091 33.5669 52.9034C33.3779 52.7159 33.281 52.4416 33.2762 52.0807C32.3411 52.3229 31.3774 52.4691 30.3851 52.5193C29.3961 52.5537 28.4009 52.4642 27.3994 52.2506Z" fill="black"/>
<path d="M36.472 34.576C36.408 34.592 36.312 34.6 36.184 34.6C35.96 34.6 35.792 34.568 35.68 34.504C35.568 34.456 35.512 34.368 35.512 34.24C35.48 33.904 35.448 33.112 35.416 31.864C35.416 31.72 35.408 31.36 35.392 30.784C35.376 30.192 35.336 29.752 35.272 29.464L35.416 29.296L36.184 29.128H37.6C37.728 29.128 37.872 29.112 38.032 29.08C38.128 29.064 38.264 29.056 38.44 29.056H39.016L39.184 29.128C39.248 29.096 39.32 29.08 39.4 29.08C39.448 29.096 39.496 29.104 39.544 29.104C39.608 29.088 39.648 29.08 39.664 29.08C39.696 29.096 39.752 29.104 39.832 29.104C39.864 29.12 39.912 29.128 39.976 29.128L40.552 29.224L40.72 29.248H40.792H40.912C41.168 29.344 41.352 29.424 41.464 29.488C41.544 29.6 41.584 29.752 41.584 29.944C41.632 30.008 41.672 30.144 41.704 30.352C41.752 30.56 41.784 30.792 41.8 31.048C41.816 31.416 41.824 31.88 41.824 32.44C41.872 32.776 41.896 33.016 41.896 33.16C41.896 33.336 41.888 33.448 41.872 33.496V33.76C41.856 33.792 41.848 33.856 41.848 33.952C41.848 34.064 41.856 34.16 41.872 34.24V34.264C41.872 34.472 41.712 34.576 41.392 34.576C41.28 34.592 41.176 34.592 41.08 34.576C41 34.576 40.928 34.576 40.864 34.576C40.736 34.56 40.552 34.552 40.312 34.552H40.096H39.76C39.68 34.568 39.568 34.576 39.424 34.576H39.232C38.272 34.544 37.688 34.528 37.48 34.528C37.192 34.528 36.984 34.536 36.856 34.552L36.472 34.576Z" fill="#0026FF"/>
<path d="M45.48 41.632L60.288 40.768L60.384 42.76L45.624 43.648L45.48 41.632ZM51.792 44.44L53.976 44.32L54.48 58.48L52.296 58.6L51.792 44.44Z" fill="black"/>
<path d="M55.496 19.016C57.896 19.016 59.704 19.48 60.92 20.408C62.136 21.32 62.744 22.664 62.744 24.44C62.744 25.32 62.584 26.336 62.264 27.488C61.736 29.344 61.024 30.816 60.128 31.904C59.232 32.992 58.048 33.784 56.576 34.28C55.12 34.776 53.248 35.016 50.96 35L44.432 34.976C44.096 34.976 43.84 34.92 43.664 34.808C43.472 34.696 43.376 34.544 43.376 34.352C43.376 34.256 43.4 34.152 43.448 34.04C43.496 33.896 43.568 33.792 43.664 33.728C43.744 33.664 43.872 33.576 44.048 33.464C44.304 33.32 44.504 33.16 44.648 32.984C44.808 32.808 44.944 32.528 45.056 32.144L47.984 21.824C48.048 21.616 48.08 21.416 48.08 21.224C48.08 21.048 48.048 20.904 47.984 20.792C47.936 20.664 47.864 20.52 47.768 20.36C47.624 20.152 47.552 19.984 47.552 19.856C47.552 19.808 47.568 19.72 47.6 19.592C47.664 19.384 47.8 19.24 48.008 19.16C48.232 19.064 48.568 19.016 49.016 19.016H55.496ZM56.12 26.96C56.536 25.456 56.744 24.272 56.744 23.408C56.744 22.56 56.568 21.976 56.216 21.656C55.864 21.336 55.36 21.176 54.704 21.176H54.176L50.936 32.84H51.512C52.248 32.84 52.864 32.688 53.36 32.384C53.872 32.064 54.344 31.488 54.776 30.656C55.208 29.808 55.656 28.576 56.12 26.96Z" fill="#0026FF"/>
</svg>
